<?xml version="1.0" encoding="UTF-8"?>
<svg id="Layer_1" data-name="Layer 1" xmlns="http://www.w3.org/2000/svg" viewBox="0 0 1080 1080">
  <defs>
    <style>
      .cls-1 {
        fill: #4b8ec6;
      }

      .cls-2 {
        fill: #fff;
      }
    </style>
  </defs>
  <path class="cls-1" d="M932.03,540.01c0,114.33-38.51,219.34-116.68,297.52-78.18,78.16-189.03,124.84-334.86,124.84H220.43c-40.02,0-72.46-32.44-72.46-72.46V190.11c0-40.04,32.44-72.48,72.46-72.48h258.9c140.02,0,253.19,44.35,331.35,121.34,78.18,77.01,121.36,179.69,121.36,301.04Z"/>
  <g>
    <path class="cls-2" d="M270.55,646.14c91.72-52.96,187.16-108.05,278.37-160.72,10.69-6.17,23.86-6.17,34.55,0,55.16,31.83,116.44,67.24,172.55,99.64,13.39,7.73,13.4,27.06,0,34.8-91.87,53.04-187.6,108.31-279.24,161.21-12.74,7.35-28.42,7.35-41.15,0-54.02-31.19-110.65-63.87-165.08-95.3-15.25-8.81-15.25-30.82,0-39.63Z"/>
    <path class="cls-1" d="M270.55,568.41c91.72-52.96,187.16-108.05,278.37-160.72,10.69-6.17,23.86-6.17,34.55,0,55.16,31.83,116.44,67.24,172.55,99.64,13.39,7.73,13.4,27.06,0,34.8-91.87,53.04-187.6,108.31-279.24,161.21-12.74,7.35-28.42,7.35-41.15,0-54.02-31.19-110.65-63.87-165.08-95.3-15.25-8.81-15.25-30.82,0-39.63Z"/>
    <path class="cls-2" d="M270.55,490.69c91.72-52.96,187.16-108.05,278.37-160.72,10.69-6.17,23.86-6.17,34.55,0,55.16,31.83,116.44,67.24,172.55,99.64,13.39,7.73,13.4,27.06,0,34.8-91.87,53.04-187.6,108.31-279.24,161.21-12.74,7.35-28.42,7.35-41.15,0-54.02-31.19-110.65-63.87-165.08-95.3-15.25-8.81-15.25-30.82,0-39.63Z"/>
  </g>
</svg>